<?xml version="1.0" encoding="utf-8"?>
<!-- Generator: Adobe Illustrator 24.1.1, SVG Export Plug-In . SVG Version: 6.00 Build 0)  -->
<svg version="1.1" id="Layer_1" xmlns="http://www.w3.org/2000/svg" xmlns:xlink="http://www.w3.org/1999/xlink" x="0px" y="0px"
	 viewBox="0 0 512 512" style="enable-background:new 0 0 512 512;" xml:space="preserve">
<g>
	<path d="M181,511.8c-32.8-14.5-55.2-45.8-58.1-81.6c1.9-36.9,21.4-70.5,52.3-90.6c-5.1,12.4-3.9,26.5,3.1,37.7
		c8,11.3,21.8,16.6,35.3,13.8c19.3-5.4,30.5-25.4,25.1-44.7c-1.9-6.7-5.7-12.9-11-17.4c-21.8-17.8-32.8-45.5-28.8-73.4
		c3.8-14.7,11.9-28,23.4-38.1c-8.7,23.1,15.7,45.7,32.1,57c29,17.3,56.9,36.5,83.6,57.2c29.3,23.1,45.2,59.1,42.7,96
		c-6.6,39.3-34.3,71.7-72.1,83.8c75.7-16.8,153.7-77,155.3-162.3c-1.5-68.3-42.2-129.5-104.5-157.4h-2.8c1.3,3.3,2,6.9,1.9,10.6
		c0.2-2.4,0.2-4.8,0-7.1c0.3,2.8,0.3,5.6,0,8.3c-4.7,19.4-24.3,31.3-43.8,26.7c-7.7-1.9-14.7-6.3-19.7-12.6c-25-32,0-68.4,4.2-103.7
		c2.6-45-18-88-54.5-114.3c18.2,30.4-6.1,70.4-23.8,93.2c-17.7,22.8-43.3,39.7-64.2,59.5c-22.5,20.9-43.1,43.9-61.6,68.5
		c-40,48.8-55.7,113.3-42.7,175c17.8,59.5,67.3,104.3,128.3,115.8h0.3L181,511.8z"/>
</g>
</svg>
