<?xml version="1.0" encoding="utf-8"?>
<!-- Generator: Adobe Illustrator 21.0.0, SVG Export Plug-In . SVG Version: 6.00 Build 0)  -->
<svg version="1.1" id="Layer_1" xmlns="http://www.w3.org/2000/svg" xmlns:xlink="http://www.w3.org/1999/xlink" x="0px" y="0px"
	 viewBox="0 0 512 512" style="enable-background:new 0 0 512 512;" xml:space="preserve">
<g>
	<path d="M111.9,76.9c-11.2,0.5-96.7,7.7-102.8,8.3c-6.1,0.5-12.8,3.3-6.7,18s103.2,228.7,105.9,235c2.7,6.2,9.8,16.4,26.2,12.3
		c16.9-4.2,75.4-19.8,107.4-28.4c16.9,31.3,51.4,94.9,57.8,103.9c8.5,12.2,14.4,10.1,27.4,6c10.2-3.2,159.7-58.2,166.4-60.9
		c6.7-2.9,10.9-4.8,6.3-11.8c-3.4-5.1-42.8-59.1-63.4-87.4c14.2-3.8,64.5-17.5,69.8-19.1c6.3-1.7,7.2-4.7,3.7-8.7
		c-3.4-3.9-50.2-63.9-58.5-74c-8.2-10.1-12.3-8.4-17.4-7.6c-5.1,0.7-64.4,11-71.3,12.1c-6.9,1.2-11.2,4-7,10.1
		c3.8,5.4,42.7,62,51.4,74.4l-155,37.9L129,86.3C124.1,78.9,123.1,76.3,111.9,76.9z M110,91.5c2.9-0.2,2.6,0.5,3.6,2.3
		c0,0,113.8,200.8,115.7,204.3c2.1,3.5,0.9,4.6-0.9,5c-1.8,0.4-88.7,21.7-93.3,22.7c-4.6,1.1-4.6,0.6-5.2-1.1
		c-0.6-1.6-103.2-218.2-104.6-220.9c-1.4-2.7-1.4-4.8,0-4.8C26.6,99,107.2,91.7,110,91.5z M439.8,176.6c1.2,0.3,2.4,1.1,3.8,3.1
		c2.9,4,42.1,54.8,43.6,56.8c1.4,1.9-1.1,3.1-4.5,3.9c-3.4,0.7-58.9,14.8-58.9,14.8l-45.4-63.6c-1.3-1.9-2.3-3.7,0.9-4.1
		c3.2-0.4,54.7-10,57-10.5L439.8,176.6z M418.6,275.1c1.1,0.1,2,0.9,3.2,2.8c2.3,3.9,49.9,70,51.3,72.2c1.4,2.2,2.8,3.7-1.6,5.2
		c-4.3,1.6-146.9,50.8-149.6,52c-2.8,1.2-5,1.6-8.5-3.7c-3.5-5.3-49.9-87.4-49.9-87.4l151-40.2C416.3,275.5,417.5,274.9,418.6,275.1
		z"/>
</g>
</svg>
